<?xml version="1.0" standalone="no"?>
<!DOCTYPE svg PUBLIC "-//W3C//DTD SVG 20010904//EN"
 "http://www.w3.org/TR/2001/REC-SVG-20010904/DTD/svg10.dtd">
<svg version="1.0" xmlns="http://www.w3.org/2000/svg"
 width="512.000000pt" height="512.000000pt" viewBox="0 0 512.000000 512.000000"
 preserveAspectRatio="xMidYMid meet">

<g transform="translate(0.000000,512.000000) scale(0.100000,-0.100000)"
fill="#000000" stroke="none">
<path d="M70 2706 l0 -286 163 0 c155 0 166 1 215 26 208 103 197 428 -17 522
-26 12 -80 17 -198 20 l-163 4 0 -286z m338 170 c36 -19 78 -65 91 -99 16 -42
13 -124 -5 -160 -43 -85 -90 -107 -229 -107 l-105 0 0 190 0 190 110 0 c76 0
120 -4 138 -14z"/>
<path d="M837 2983 c-11 -19 -237 -560 -237 -566 0 -5 23 -7 51 -5 l51 3 92
227 c50 125 94 228 97 228 6 0 89 -186 89 -200 0 -5 -25 -10 -57 -12 -56 -3
-56 -3 -74 -45 l-18 -43 92 0 93 0 36 -80 36 -80 51 0 c29 0 51 5 51 10 0 6
-55 137 -122 290 l-122 280 -52 0 c-29 0 -55 -3 -57 -7z"/>
<path d="M1157 2984 c-4 -4 -7 -24 -7 -45 l0 -38 83 -3 82 -3 3 -242 2 -243
50 0 50 0 2 243 3 242 83 3 83 3 -3 42 -3 42 -211 3 c-115 1 -213 -1 -217 -4z"/>
<path d="M1781 2973 c-12 -24 -231 -543 -231 -549 0 -3 23 -4 52 -2 l52 3 90
223 c49 122 93 222 96 222 7 0 90 -188 90 -202 0 -5 -27 -8 -59 -8 l-59 0 -15
-45 -16 -45 92 0 92 0 34 -75 33 -75 55 0 c40 0 54 3 50 13 -2 6 -58 135 -123
285 l-118 272 -53 0 c-40 0 -55 -4 -62 -17z"/>
<path d="M2210 2699 l0 -290 48 3 47 3 3 195 3 195 78 -195 79 -195 41 -3 c41
-3 42 -3 65 50 12 29 47 117 77 195 l54 142 5 -192 5 -192 48 -3 47 -3 0 291
0 291 -52 -3 -53 -3 -91 -208 c-49 -115 -95 -209 -100 -209 -5 0 -51 95 -103
211 l-94 211 -54 0 -53 0 0 -291z"/>
<path d="M2997 2713 c-64 -153 -117 -281 -117 -285 0 -5 22 -8 49 -8 l49 0 26
63 c14 34 55 133 90 221 64 155 73 174 79 165 3 -4 71 -162 83 -194 5 -12 -4
-15 -54 -15 l-60 0 -16 -40 c-9 -22 -16 -43 -16 -45 0 -3 41 -5 91 -5 l90 0
34 -75 34 -75 55 0 55 0 -10 28 c-6 15 -61 142 -122 282 l-112 255 -55 3 -55
3 -118 -278z"/>
<path d="M3430 2945 l0 -45 80 0 80 0 0 -245 0 -245 50 0 50 0 2 243 3 242 83
3 83 3 -3 42 -3 42 -212 3 -213 2 0 -45z"/>
<path d="M3920 2700 l0 -290 50 0 50 0 0 290 0 290 -50 0 -50 0 0 -290z"/>
<path d="M4279 2976 c-99 -35 -158 -101 -185 -206 -34 -133 33 -277 156 -334
35 -17 64 -21 135 -21 50 1 107 7 128 14 36 12 37 14 37 62 0 27 -1 49 -2 49
-2 0 -21 -7 -43 -15 -62 -22 -170 -19 -223 6 -125 61 -137 249 -21 326 38 25
51 28 128 28 47 0 103 -4 124 -9 l38 -8 -3 48 -3 49 -50 12 c-68 15 -172 15
-216 -1z"/>
<path d="M4756 2979 c-55 -13 -104 -45 -122 -81 -20 -38 -21 -126 -3 -163 28
-56 60 -69 184 -76 92 -4 118 -9 135 -24 37 -33 22 -93 -30 -120 -44 -23 -192
-17 -263 11 -16 6 -18 1 -15 -42 l3 -49 60 -13 c33 -7 99 -11 146 -9 105 4
171 32 200 87 26 47 25 135 -1 177 -31 52 -71 67 -192 71 -122 5 -142 16 -136
73 5 54 44 74 141 74 45 0 97 -3 114 -7 31 -7 34 -5 48 28 8 20 15 40 15 44 0
23 -207 37 -284 19z"/>
</g>
</svg>
